<?xml version="1.0" standalone="no"?>
<!DOCTYPE svg PUBLIC "-//W3C//DTD SVG 20010904//EN"
 "http://www.w3.org/TR/2001/REC-SVG-20010904/DTD/svg10.dtd">
<svg version="1.0" xmlns="http://www.w3.org/2000/svg"
 width="1000.000000pt" height="750.000000pt" viewBox="0 0 1000.000000 750.000000"
 preserveAspectRatio="xMidYMid meet">

<g transform="translate(0.000000,750.000000) scale(0.100000,-0.100000)"
fill="#000000" stroke="none">
<path d="M0 3750 l0 -3750 5000 0 5000 0 0 3750 0 3750 -5000 0 -5000 0 0
-3750z m5055 2603 c45 -33 67 -43 90 -41 29 3 30 1 33 -39 5 -66 -14 -121 -49
-142 -25 -16 -60 -19 -222 -24 -343 -10 -485 -59 -947 -331 -246 -145 -298
-185 -541 -426 -241 -239 -348 -387 -428 -593 -58 -151 -76 -248 -116 -612
-35 -323 -37 -331 -72 -410 l-36 -80 27 -195 c14 -107 26 -198 26 -203 0 -4
-11 -5 -25 -1 -37 9 -53 -31 -30 -75 19 -38 39 -48 60 -31 9 7 17 11 19 9 2
-2 33 -75 69 -162 36 -86 80 -182 98 -213 49 -79 261 -297 600 -615 l297 -277
43 9 c24 6 54 17 66 25 28 18 33 18 33 -1 0 -8 -13 -29 -30 -48 l-29 -34 77
-41 c142 -75 224 -95 502 -122 120 -12 344 -50 443 -76 54 -14 65 -13 150 5
51 11 127 23 171 27 70 6 83 11 122 43 32 27 45 46 50 74 6 32 9 36 22 25 13
-12 14 -8 9 32 l-7 45 20 -23 c11 -13 28 -36 39 -50 l20 -27 16 23 c12 16 23
21 36 17 16 -5 19 -1 19 24 0 32 16 42 26 16 9 -22 23 -18 36 10 10 22 18 25
59 25 44 0 48 -2 51 -27 4 -37 19 -38 63 -3 l39 31 23 -26 c42 -45 66 -36 275
104 221 148 402 278 640 462 92 71 169 129 172 129 3 0 6 -10 7 -22 0 -15 2
-18 6 -8 3 8 10 26 15 39 7 19 11 21 23 11 21 -18 47 1 99 74 42 59 150 166
168 166 11 0 -64 -178 -138 -327 -80 -160 -172 -303 -286 -444 -52 -64 -89
-119 -93 -140 -10 -47 -31 -85 -50 -93 -9 -3 -34 -6 -56 -6 -45 0 -109 -24
-109 -40 0 -6 5 -20 10 -31 10 -18 10 -19 -24 -2 -33 15 -39 15 -101 -1 -69
-19 -78 -31 -44 -62 29 -27 59 -88 59 -121 -1 -28 -1 -27 -43 20 l-42 48 -40
-29 c-22 -16 -82 -73 -132 -128 -91 -97 -93 -100 -93 -149 l0 -50 -65 0 c-37
0 -69 -5 -76 -12 -7 -7 -14 -37 -17 -68 -2 -30 -9 -55 -15 -55 -5 0 -32 23
-58 52 l-47 52 -84 -18 c-124 -27 -147 -39 -145 -73 3 -44 -30 -41 -144 13
-90 42 -107 46 -165 44 -35 -1 -76 -2 -91 -2 -16 -1 -62 7 -103 16 -120 26
-312 31 -503 12 -224 -21 -207 -23 -207 21 0 29 -3 34 -12 25 -18 -18 -36 -15
-83 18 -75 52 -404 220 -419 214 -23 -9 -137 16 -194 42 -30 13 -71 38 -93 55
-54 42 -116 59 -220 59 -121 0 -185 25 -260 99 -67 68 -111 154 -140 276 -23
100 -36 123 -80 146 -28 14 -37 31 -74 135 -39 111 -101 257 -271 644 -68 153
-69 156 -72 257 l-4 102 29 3 c24 3 28 8 31 37 8 82 -66 317 -159 508 l-60
121 21 134 c64 402 84 487 144 613 54 113 115 190 265 330 179 167 212 210
241 315 11 39 40 72 219 250 114 113 233 225 266 250 l59 45 121 -3 121 -3 13
38 c8 21 42 65 76 100 72 71 143 100 221 88 54 -8 64 -2 162 86 95 86 118 89
116 12 l-2 -51 55 35 c113 72 440 207 478 196 11 -3 47 -25 80 -50z m1075
-143 c292 -83 507 -205 686 -387 59 -60 117 -146 341 -505 l270 -433 27 -225
c14 -124 29 -280 32 -347 4 -68 11 -123 16 -123 5 0 18 16 29 35 17 28 59 66
59 53 0 -2 -9 -32 -21 -68 -31 -98 -58 -241 -71 -372 -9 -84 -15 -113 -21
-101 -10 16 -3 304 8 353 3 14 3 19 -1 12 -22 -46 -74 -26 -74 29 0 23 -15 44
-67 98 -39 38 -91 106 -121 157 -51 84 -53 91 -46 134 5 25 8 74 8 110 1 82
-19 118 -100 183 -32 26 -69 65 -82 86 -42 71 -84 209 -85 282 -1 38 -3 69 -4
69 -1 0 -24 -11 -51 -25 -28 -14 -63 -25 -79 -25 -33 0 -36 2 -328 210 -249
178 -427 297 -564 378 -83 48 -103 56 -170 63 -126 14 -215 48 -286 110 -74
65 -85 131 -32 183 28 28 41 34 99 39 36 3 80 2 97 -3 27 -7 33 -6 44 12 25
42 60 49 242 44 134 -3 186 -9 245 -26z m-1160 -1629 c0 -9 11 -39 24 -68 48
-103 104 -96 196 25 36 46 54 31 40 -33 -12 -56 0 -109 30 -125 29 -15 82 -12
152 10 34 11 69 20 76 20 22 0 12 -26 -24 -61 -66 -63 -82 -124 -43 -172 11
-15 49 -40 84 -57 35 -17 66 -34 69 -38 10 -16 -11 -29 -68 -41 -138 -30 -141
-102 -11 -277 6 -9 6 -17 -2 -25 -9 -9 -27 0 -75 36 -166 125 -238 113 -238
-39 0 -60 -2 -66 -20 -66 -13 0 -24 10 -30 26 -18 46 -70 114 -101 130 -52 26
-101 -5 -165 -104 -42 -65 -62 -59 -62 17 0 74 -11 108 -45 137 -28 24 -37 26
-87 21 -30 -3 -76 -14 -102 -25 -39 -17 -48 -18 -58 -7 -9 11 -4 19 20 37 46
33 100 111 107 152 5 30 1 40 -24 64 -30 27 -120 62 -160 62 -26 0 -49 25 -33
35 6 4 48 8 93 9 89 2 138 20 158 58 18 34 6 127 -24 187 -20 38 -25 57 -17
65 12 12 10 13 96 -57 127 -103 194 -83 194 59 0 64 14 92 37 73 7 -7 13 -19
13 -28z m-1002 -1039 c101 -53 119 -190 36 -268 l-34 -32 35 -20 c45 -27 69
-75 68 -137 0 -63 -23 -107 -73 -144 -59 -42 -105 -50 -337 -54 -176 -3 -213
-1 -218 11 -3 7 -5 159 -5 337 l0 324 93 4 c50 2 160 3 242 3 136 -1 154 -4
193 -24z m573 -28 l36 -6 91 -282 c51 -155 92 -288 92 -294 0 -10 -32 -12
-127 -10 l-127 3 -12 40 -11 40 -71 3 -71 3 -11 -41 c-14 -52 -34 -60 -156
-60 -84 0 -94 2 -94 18 0 20 166 546 181 575 8 15 25 17 127 17 64 0 133 -3
153 -6z m590 -12 c3 -4 14 -47 23 -97 31 -165 26 -161 56 -50 15 55 30 112 34
128 l7 27 162 -2 162 -3 3 -284 c1 -182 -1 -288 -8 -295 -15 -15 -189 -21
-203 -7 -7 7 -14 60 -17 134 l-5 122 -34 -128 -34 -128 -96 3 -96 3 -35 160
-35 160 -3 -162 -2 -163 -104 0 -103 0 -6 68 c-9 94 -9 517 1 526 8 9 324 -3
333 -12z m939 -7 c112 -40 166 -114 177 -242 11 -131 -42 -238 -147 -297 l-55
-31 -193 -3 -192 -4 2 294 3 293 50 7 c87 11 305 1 355 -17z m478 -282 l-3
-298 -122 -3 -123 -3 0 301 0 300 125 0 125 0 -2 -297z"/>
<path d="M2823 3006 c9 -13 22 -46 28 -73 12 -48 31 -78 59 -93 10 -5 -2 30
-32 91 -26 54 -53 99 -59 99 -7 0 -6 -9 4 -24z"/>
<path d="M2735 3010 c-5 -8 45 -83 51 -77 2 1 -3 21 -9 45 -11 40 -29 54 -42
32z"/>
<path d="M4946 4437 c-30 -73 -96 -86 -184 -36 -41 23 -53 27 -48 14 18 -48
17 -94 -2 -139 -18 -38 -30 -50 -71 -70 l-50 -23 30 -17 c61 -36 75 -112 34
-183 l-24 -43 59 0 c52 0 64 -4 94 -30 19 -17 40 -48 46 -68 6 -20 13 -43 16
-50 2 -8 16 1 36 24 40 46 89 68 131 58 17 -3 52 -27 79 -52 45 -42 48 -43 48
-21 0 26 23 65 50 86 23 19 96 15 140 -7 22 -11 41 -20 43 -20 3 0 -2 19 -10
43 -25 73 8 136 87 165 22 8 22 9 -15 32 -20 12 -46 37 -56 54 -24 40 -25 112
0 151 l18 30 -66 -3 c-84 -4 -124 18 -142 77 l-12 40 -36 -25 c-55 -37 -105
-33 -147 11 l-33 36 -15 -34z"/>
<path d="M3698 3414 c-6 -5 1 -125 7 -132 2 -2 22 2 44 8 30 8 45 18 51 36 14
37 12 52 -10 74 -19 19 -79 28 -92 14z"/>
<path d="M3706 3134 c-13 -95 -12 -97 36 -91 98 13 103 115 7 132 l-36 7 -7
-48z"/>
<path d="M4405 3353 c-4 -16 -15 -62 -26 -104 -10 -41 -19 -78 -19 -82 0 -4
23 -7 50 -7 43 0 50 3 50 19 0 24 -40 201 -46 201 -2 0 -6 -12 -9 -27z"/>
<path d="M5903 3374 c-10 -4 -13 -46 -13 -160 0 -146 1 -154 20 -154 33 0 67
21 80 49 29 63 24 202 -8 240 -18 21 -58 34 -79 25z"/>
</g>
</svg>
